<svg width="1440" height="261" viewBox="0 0 1440 261" fill="none" xmlns="http://www.w3.org/2000/svg">
    <path fill-rule="evenodd" clip-rule="evenodd" d="M1216.01 128.598C1226.65 178.179 1587.14 180.949 1534.92 224.484C1482.82 267.908 2055.84 241.385 645.407 243.132C-943.112 245.099 -81.1782 279.555 -154.58 244.123C-236.017 204.812 -28.5055 253.149 149.489 157.974C270.5 93.2679 285.714 148.479 400.5 84C484.5 36.8143 511.46 61.3287 626.013 21.1435C694.058 -12.2342 867.965 -8.68833 981.41 60.7467C1023.93 93.6353 1205.37 79.0167 1216.01 128.598Z" fill="url(#paint0_linear_0_1)"/>
    <path d="M622.808 90.648C622.808 91.992 622.484 93.252 621.836 94.428C621.212 95.604 620.216 96.552 618.848 97.272C617.504 97.992 615.8 98.352 613.736 98.352H609.524V108H604.484V82.872H613.736C615.68 82.872 617.336 83.208 618.704 83.88C620.072 84.552 621.092 85.476 621.764 86.652C622.46 87.828 622.808 89.16 622.808 90.648ZM613.52 94.284C614.912 94.284 615.944 93.972 616.616 93.348C617.288 92.7 617.624 91.8 617.624 90.648C617.624 88.2 616.256 86.976 613.52 86.976H609.524V94.284H613.52ZM635.242 108.324C633.322 108.324 631.594 107.904 630.058 107.064C628.522 106.2 627.31 104.988 626.422 103.428C625.558 101.868 625.126 100.068 625.126 98.028C625.126 95.988 625.57 94.188 626.458 92.628C627.37 91.068 628.606 89.868 630.166 89.028C631.726 88.164 633.466 87.732 635.386 87.732C637.306 87.732 639.046 88.164 640.606 89.028C642.166 89.868 643.39 91.068 644.278 92.628C645.19 94.188 645.646 95.988 645.646 98.028C645.646 100.068 645.178 101.868 644.242 103.428C643.33 104.988 642.082 106.2 640.498 107.064C638.938 107.904 637.186 108.324 635.242 108.324ZM635.242 103.932C636.154 103.932 637.006 103.716 637.798 103.284C638.614 102.828 639.262 102.156 639.742 101.268C640.222 100.38 640.462 99.3 640.462 98.028C640.462 96.132 639.958 94.68 638.95 93.672C637.966 92.64 636.754 92.124 635.314 92.124C633.874 92.124 632.662 92.64 631.678 93.672C630.718 94.68 630.238 96.132 630.238 98.028C630.238 99.924 630.706 101.388 631.642 102.42C632.602 103.428 633.802 103.932 635.242 103.932ZM654.383 90.936C655.031 90.024 655.919 89.268 657.047 88.668C658.199 88.044 659.507 87.732 660.971 87.732C662.675 87.732 664.211 88.152 665.579 88.992C666.971 89.832 668.063 91.032 668.855 92.592C669.671 94.128 670.079 95.916 670.079 97.956C670.079 99.996 669.671 101.808 668.855 103.392C668.063 104.952 666.971 106.164 665.579 107.028C664.211 107.892 662.675 108.324 660.971 108.324C659.507 108.324 658.211 108.024 657.083 107.424C655.979 106.824 655.079 106.068 654.383 105.156V117.504H649.343V88.056H654.383V90.936ZM664.931 97.956C664.931 96.756 664.679 95.724 664.175 94.86C663.695 93.972 663.047 93.3 662.231 92.844C661.439 92.388 660.575 92.16 659.639 92.16C658.727 92.16 657.863 92.4 657.047 92.88C656.255 93.336 655.607 94.008 655.103 94.896C654.623 95.784 654.383 96.828 654.383 98.028C654.383 99.228 654.623 100.272 655.103 101.16C655.607 102.048 656.255 102.732 657.047 103.212C657.863 103.668 658.727 103.896 659.639 103.896C660.575 103.896 661.439 103.656 662.231 103.176C663.047 102.696 663.695 102.012 664.175 101.124C664.679 100.236 664.931 99.18 664.931 97.956ZM692.57 88.056V108H687.494V105.48C686.846 106.344 685.994 107.028 684.938 107.532C683.906 108.012 682.778 108.252 681.554 108.252C679.994 108.252 678.614 107.928 677.414 107.28C676.214 106.608 675.266 105.636 674.57 104.364C673.898 103.068 673.562 101.532 673.562 99.756V88.056H678.602V99.036C678.602 100.62 678.998 101.844 679.79 102.708C680.582 103.548 681.662 103.968 683.03 103.968C684.422 103.968 685.514 103.548 686.306 102.708C687.098 101.844 687.494 100.62 687.494 99.036V88.056H692.57ZM702.583 81.36V108H697.543V81.36H702.583ZM706.266 97.956C706.266 95.94 706.662 94.152 707.454 92.592C708.27 91.032 709.362 89.832 710.73 88.992C712.122 88.152 713.67 87.732 715.374 87.732C716.862 87.732 718.158 88.032 719.262 88.632C720.39 89.232 721.29 89.988 721.962 90.9V88.056H727.038V108H721.962V105.084C721.314 106.02 720.414 106.8 719.262 107.424C718.134 108.024 716.826 108.324 715.338 108.324C713.658 108.324 712.122 107.892 710.73 107.028C709.362 106.164 708.27 104.952 707.454 103.392C706.662 101.808 706.266 99.996 706.266 97.956ZM721.962 98.028C721.962 96.804 721.722 95.76 721.242 94.896C720.762 94.008 720.114 93.336 719.298 92.88C718.482 92.4 717.606 92.16 716.67 92.16C715.734 92.16 714.87 92.388 714.078 92.844C713.286 93.3 712.638 93.972 712.134 94.86C711.654 95.724 711.414 96.756 711.414 97.956C711.414 99.156 711.654 100.212 712.134 101.124C712.638 102.012 713.286 102.696 714.078 103.176C714.894 103.656 715.758 103.896 716.67 103.896C717.606 103.896 718.482 103.668 719.298 103.212C720.114 102.732 720.762 102.06 721.242 101.196C721.722 100.308 721.962 99.252 721.962 98.028ZM737.001 91.152C737.649 90.096 738.489 89.268 739.521 88.668C740.577 88.068 741.777 87.768 743.121 87.768V93.06H741.789C740.205 93.06 739.005 93.432 738.189 94.176C737.397 94.92 737.001 96.216 737.001 98.064V108H731.961V88.056H737.001V91.152ZM753.869 95.4C753.869 92.928 754.421 90.72 755.525 88.776C756.653 86.808 758.177 85.284 760.097 84.204C762.041 83.1 764.213 82.548 766.613 82.548C769.421 82.548 771.881 83.268 773.993 84.708C776.105 86.148 777.581 88.14 778.421 90.684H772.625C772.049 89.484 771.233 88.584 770.177 87.984C769.145 87.384 767.945 87.084 766.577 87.084C765.113 87.084 763.805 87.432 762.653 88.128C761.525 88.8 760.637 89.76 759.989 91.008C759.365 92.256 759.053 93.72 759.053 95.4C759.053 97.056 759.365 98.52 759.989 99.792C760.637 101.04 761.525 102.012 762.653 102.708C763.805 103.38 765.113 103.716 766.577 103.716C767.945 103.716 769.145 103.416 770.177 102.816C771.233 102.192 772.049 101.28 772.625 100.08H778.421C777.581 102.648 776.105 104.652 773.993 106.092C771.905 107.508 769.445 108.216 766.613 108.216C764.213 108.216 762.041 107.676 760.097 106.596C758.177 105.492 756.653 103.968 755.525 102.024C754.421 100.08 753.869 97.872 753.869 95.4ZM791.582 108.324C789.662 108.324 787.934 107.904 786.398 107.064C784.862 106.2 783.65 104.988 782.762 103.428C781.898 101.868 781.466 100.068 781.466 98.028C781.466 95.988 781.91 94.188 782.798 92.628C783.71 91.068 784.946 89.868 786.506 89.028C788.066 88.164 789.806 87.732 791.726 87.732C793.646 87.732 795.386 88.164 796.946 89.028C798.506 89.868 799.73 91.068 800.618 92.628C801.53 94.188 801.986 95.988 801.986 98.028C801.986 100.068 801.518 101.868 800.582 103.428C799.67 104.988 798.422 106.2 796.838 107.064C795.278 107.904 793.526 108.324 791.582 108.324ZM791.582 103.932C792.494 103.932 793.346 103.716 794.138 103.284C794.954 102.828 795.602 102.156 796.082 101.268C796.562 100.38 796.802 99.3 796.802 98.028C796.802 96.132 796.298 94.68 795.29 93.672C794.306 92.64 793.094 92.124 791.654 92.124C790.214 92.124 789.002 92.64 788.018 93.672C787.058 94.68 786.578 96.132 786.578 98.028C786.578 99.924 787.046 101.388 787.982 102.42C788.942 103.428 790.142 103.932 791.582 103.932ZM824.511 88.056V108H819.435V105.48C818.787 106.344 817.935 107.028 816.879 107.532C815.847 108.012 814.719 108.252 813.495 108.252C811.935 108.252 810.555 107.928 809.355 107.28C808.155 106.608 807.207 105.636 806.511 104.364C805.839 103.068 805.503 101.532 805.503 99.756V88.056H810.543V99.036C810.543 100.62 810.939 101.844 811.731 102.708C812.523 103.548 813.603 103.968 814.971 103.968C816.363 103.968 817.455 103.548 818.247 102.708C819.039 101.844 819.435 100.62 819.435 99.036V88.056H824.511ZM834.524 91.152C835.172 90.096 836.012 89.268 837.044 88.668C838.1 88.068 839.3 87.768 840.644 87.768V93.06H839.312C837.728 93.06 836.528 93.432 835.712 94.176C834.92 94.92 834.524 96.216 834.524 98.064V108H829.484V88.056H834.524V91.152ZM851.671 108.324C850.039 108.324 848.575 108.036 847.279 107.46C845.983 106.86 844.951 106.056 844.183 105.048C843.439 104.04 843.031 102.924 842.959 101.7H848.035C848.131 102.468 848.503 103.104 849.151 103.608C849.823 104.112 850.651 104.364 851.635 104.364C852.595 104.364 853.339 104.172 853.867 103.788C854.419 103.404 854.695 102.912 854.695 102.312C854.695 101.664 854.359 101.184 853.687 100.872C853.039 100.536 851.995 100.176 850.555 99.792C849.067 99.432 847.843 99.06 846.883 98.676C845.947 98.292 845.131 97.704 844.435 96.912C843.763 96.12 843.427 95.052 843.427 93.708C843.427 92.604 843.739 91.596 844.363 90.684C845.011 89.772 845.923 89.052 847.099 88.524C848.299 87.996 849.703 87.732 851.311 87.732C853.687 87.732 855.583 88.332 856.999 89.532C858.415 90.708 859.195 92.304 859.339 94.32H854.515C854.443 93.528 854.107 92.904 853.507 92.448C852.931 91.968 852.151 91.728 851.167 91.728C850.255 91.728 849.547 91.896 849.043 92.232C848.563 92.568 848.323 93.036 848.323 93.636C848.323 94.308 848.659 94.824 849.331 95.184C850.003 95.52 851.047 95.868 852.463 96.228C853.903 96.588 855.091 96.96 856.027 97.344C856.963 97.728 857.767 98.328 858.439 99.144C859.135 99.936 859.495 100.992 859.519 102.312C859.519 103.464 859.195 104.496 858.547 105.408C857.923 106.32 857.011 107.04 855.811 107.568C854.635 108.072 853.255 108.324 851.671 108.324ZM882.196 97.596C882.196 98.316 882.148 98.964 882.052 99.54H867.472C867.592 100.98 868.096 102.108 868.984 102.924C869.872 103.74 870.964 104.148 872.26 104.148C874.132 104.148 875.464 103.344 876.256 101.736H881.692C881.116 103.656 880.012 105.24 878.38 106.488C876.748 107.712 874.744 108.324 872.368 108.324C870.448 108.324 868.72 107.904 867.184 107.064C865.672 106.2 864.484 104.988 863.62 103.428C862.78 101.868 862.36 100.068 862.36 98.028C862.36 95.964 862.78 94.152 863.62 92.592C864.46 91.032 865.636 89.832 867.148 88.992C868.66 88.152 870.4 87.732 872.368 87.732C874.264 87.732 875.956 88.14 877.444 88.956C878.956 89.772 880.12 90.936 880.936 92.448C881.776 93.936 882.196 95.652 882.196 97.596ZM876.976 96.156C876.952 94.86 876.484 93.828 875.572 93.06C874.66 92.268 873.544 91.872 872.224 91.872C870.976 91.872 869.92 92.256 869.056 93.024C868.216 93.768 867.7 94.812 867.508 96.156H876.976ZM893.507 108.324C891.875 108.324 890.411 108.036 889.115 107.46C887.819 106.86 886.787 106.056 886.019 105.048C885.275 104.04 884.867 102.924 884.795 101.7H889.871C889.967 102.468 890.339 103.104 890.987 103.608C891.659 104.112 892.487 104.364 893.471 104.364C894.431 104.364 895.175 104.172 895.703 103.788C896.255 103.404 896.531 102.912 896.531 102.312C896.531 101.664 896.195 101.184 895.523 100.872C894.875 100.536 893.831 100.176 892.391 99.792C890.903 99.432 889.679 99.06 888.719 98.676C887.783 98.292 886.967 97.704 886.271 96.912C885.599 96.12 885.263 95.052 885.263 93.708C885.263 92.604 885.575 91.596 886.199 90.684C886.847 89.772 887.759 89.052 888.935 88.524C890.135 87.996 891.539 87.732 893.147 87.732C895.523 87.732 897.419 88.332 898.835 89.532C900.251 90.708 901.031 92.304 901.175 94.32H896.351C896.279 93.528 895.943 92.904 895.343 92.448C894.767 91.968 893.987 91.728 893.003 91.728C892.091 91.728 891.383 91.896 890.879 92.232C890.399 92.568 890.159 93.036 890.159 93.636C890.159 94.308 890.495 94.824 891.167 95.184C891.839 95.52 892.883 95.868 894.299 96.228C895.739 96.588 896.927 96.96 897.863 97.344C898.799 97.728 899.603 98.328 900.275 99.144C900.971 99.936 901.331 100.992 901.355 102.312C901.355 103.464 901.031 104.496 900.383 105.408C899.759 106.32 898.847 107.04 897.647 107.568C896.471 108.072 895.091 108.324 893.507 108.324Z" fill="white"/>
    <line x1="454.366" y1="249.424" x2="351.78" y2="105.872" stroke="white" stroke-opacity="0.5" stroke-width="3"/>
    <line x1="345.853" y1="210.492" x2="208.153" y2="224.606" stroke="white" stroke-opacity="0.5" stroke-width="3"/>
    <line x1="378.378" y1="143.825" x2="405.918" y2="78.4179" stroke="white" stroke-opacity="0.5" stroke-width="3"/>
    <line x1="379.866" y1="145.904" x2="214.282" y2="157.608" stroke="white" stroke-opacity="0.5" stroke-width="3"/>
    <circle cx="375.5" cy="144.5" r="8.5" fill="white"/>
    <circle cx="1111.5" cy="118.5" r="5.5" fill="white"/>
    <circle cx="1177.5" cy="129.5" r="5.5" fill="white"/>
    <ellipse cx="1084" cy="181.5" rx="6" ry="5.5" fill="white"/>
    <line x1="1111.68" y1="116.935" x2="1177.62" y2="128.2" stroke="white" stroke-opacity="0.5" stroke-width="3"/>
    <line x1="1178.09" y1="130.991" x2="1084.66" y2="182.68" stroke="white" stroke-opacity="0.5" stroke-width="3"/>
    <line x1="1082.56" y1="180.767" x2="1110.06" y2="117.813" stroke="white" stroke-opacity="0.5" stroke-width="3"/>
    <line x1="1353.73" y1="200.251" x2="1430.72" y2="185.527" stroke="white" stroke-opacity="0.5" stroke-width="3"/>
    <ellipse cx="1404" cy="239.5" rx="4" ry="3.5" fill="white"/>
    <circle cx="1353.5" cy="200.5" r="3.5" fill="white"/>
    <line y1="-1.5" x2="60.6328" y2="-1.5" transform="matrix(0.791554 0.611099 -0.649057 0.760739 1354.01 203.198)" stroke="white" stroke-opacity="0.5" stroke-width="3"/>
    <line x1="1352.92" y1="200.63" x2="1376.9" y2="174.976" stroke="white" stroke-opacity="0.5" stroke-width="3"/>
    <line x1="1011.04" y1="230.105" x2="1120.89" y2="233.351" stroke="white" stroke-opacity="0.5" stroke-width="3"/>
    <line x1="1111.2" y1="234.513" x2="1319.54" y2="168.041" stroke="white" stroke-opacity="0.5" stroke-width="3"/>
    <path d="M942.952 77.1747L935.123 80.4448L932.2 91.2494C932.144 91.4524 932.033 91.63 931.881 91.7562C931.73 91.8824 931.547 91.9506 931.359 91.9506C931.17 91.9507 930.987 91.8827 930.836 91.7565C930.684 91.6304 930.573 91.4529 930.517 91.2499L927.594 80.4472L919.764 77.1821C919.596 77.1116 919.45 76.9848 919.348 76.8186C919.245 76.6524 919.19 76.4548 919.19 76.2523C919.19 76.0498 919.245 75.8521 919.348 75.6858C919.45 75.5195 919.595 75.3926 919.764 75.3221L927.59 72.053L930.514 60.9191C930.567 60.7138 930.679 60.5336 930.831 60.4055C930.983 60.2773 931.167 60.208 931.357 60.208C931.547 60.2079 931.732 60.2771 931.884 60.4051C932.036 60.5332 932.147 60.7133 932.201 60.9185L935.126 72.0506L942.953 75.3148C943.122 75.3844 943.268 75.511 943.371 75.6774C943.474 75.8438 943.529 76.0419 943.529 76.2449C943.529 76.4479 943.474 76.646 943.37 76.8123C943.267 76.9787 943.121 77.1052 942.952 77.1747Z" fill="#FFE500"/>
    <path d="M925.35 66.3026L923.316 67.1535L922.524 70.4319C922.473 70.6424 922.363 70.8282 922.209 70.9607C922.056 71.0932 921.868 71.165 921.675 71.165C921.482 71.1651 921.294 71.0934 921.141 70.961C920.988 70.8286 920.877 70.6428 920.826 70.4324L920.035 67.1545L918 66.3047C917.832 66.2342 917.687 66.1072 917.584 65.9407C917.481 65.7743 917.427 65.5764 917.427 65.3736C917.426 65.1708 917.481 64.9728 917.584 64.8063C917.686 64.6398 917.832 64.5127 918 64.4421L920.024 63.5941L920.822 59.9959C920.869 59.781 920.979 59.5904 921.134 59.4541C921.288 59.3178 921.479 59.2438 921.675 59.2437C921.871 59.2437 922.061 59.3176 922.216 59.4538C922.371 59.59 922.48 59.7806 922.528 59.9954L923.326 63.5932L925.35 64.44C925.518 64.5105 925.664 64.6375 925.766 64.804C925.869 64.9704 925.924 65.1683 925.924 65.3711C925.924 65.5739 925.869 65.7718 925.766 65.9383C925.664 66.1049 925.518 66.232 925.35 66.3026Z" fill="#FFE500"/>
    <path d="M921.461 88.6382L919.379 89.5045L918.609 91.8443C918.547 92.0339 918.434 92.1976 918.287 92.3132C918.139 92.4288 917.963 92.4908 917.783 92.4909C917.604 92.491 917.428 92.4291 917.28 92.3136C917.133 92.1981 917.02 92.0345 916.958 91.8449L916.186 89.5057L914.105 88.6409C913.937 88.5709 913.791 88.4444 913.688 88.2786C913.585 88.1127 913.53 87.9154 913.53 87.7132C913.53 87.511 913.585 87.3137 913.688 87.1478C913.791 86.9818 913.937 86.8553 914.105 86.7851L916.186 85.9188L916.957 83.579C917.019 83.3889 917.132 83.2248 917.279 83.1088C917.427 82.9928 917.603 82.9306 917.783 82.9305C917.963 82.9304 918.139 82.9925 918.287 83.1084C918.434 83.2243 918.547 83.3883 918.609 83.5784L919.379 85.9176L921.461 86.7824C921.63 86.8524 921.775 86.9789 921.878 87.1447C921.981 87.3106 922.036 87.5079 922.036 87.7101C922.036 87.9122 921.981 88.1096 921.878 88.2755C921.775 88.4414 921.63 88.568 921.461 88.6382Z" fill="#FFE500"/>
    <path d="M563.598 70.7833L571.53 74.3713L574.483 85.1694C574.539 85.3722 574.652 85.5527 574.805 85.6842C574.959 85.8158 575.144 85.8915 575.335 85.9002C575.526 85.9089 575.712 85.8502 575.865 85.7327C576.019 85.6152 576.132 85.4451 576.188 85.2474L579.159 74.7204L587.097 71.8585C587.268 71.7968 587.415 71.6783 587.519 71.519C587.623 71.3597 587.679 71.1671 587.68 70.9673C587.68 70.7674 587.624 70.5698 587.52 70.401C587.417 70.2322 587.27 70.1002 587.099 70.0229L579.17 66.436L576.216 55.3129C576.162 55.1078 576.049 54.9249 575.895 54.7914C575.741 54.6579 575.554 54.581 575.362 54.5722C575.17 54.5634 574.982 54.6231 574.828 54.7425C574.674 54.8619 574.561 55.0345 574.506 55.2346L571.533 66.0866L563.599 68.9476C563.427 69.0086 563.279 69.1268 563.174 69.2863C563.07 69.4457 563.014 69.6387 563.014 69.8391C563.014 70.0394 563.07 70.2375 563.174 70.4064C563.279 70.5753 563.427 70.7069 563.598 70.7833Z" fill="#FFE500"/>
    <path d="M581.423 60.1549L583.486 61.0892L584.286 64.3633C584.337 64.5734 584.449 64.762 584.605 64.8999C584.76 65.0379 584.951 65.1175 585.147 65.1264C585.342 65.1354 585.533 65.0733 585.689 64.9496C585.844 64.8259 585.957 64.6476 586.008 64.4421L586.814 61.2416L588.879 60.4964C589.049 60.4346 589.197 60.3158 589.301 60.1562C589.405 59.9965 589.461 59.8036 589.461 59.6034C589.461 59.4031 589.406 59.2051 589.302 59.0359C589.198 58.8668 589.051 58.7346 588.88 58.6571L586.828 57.7262L586.021 54.136C585.973 53.9216 585.862 53.7283 585.705 53.5866C585.549 53.4449 585.355 53.3629 585.157 53.3538C584.958 53.3447 584.764 53.4089 584.607 53.5363C584.45 53.6636 584.339 53.8468 584.29 54.0567L583.478 57.5728L581.424 58.3156C581.253 58.3774 581.106 58.4961 581.002 58.6558C580.898 58.8154 580.842 59.0083 580.842 59.2086C580.841 59.4088 580.897 59.6069 581.001 59.776C581.105 59.9452 581.252 60.0774 581.423 60.1549Z" fill="#FFE500"/>
    <path d="M585.062 82.0146L587.167 82.9637L587.944 85.3047C588.007 85.4944 588.121 85.6609 588.27 85.7815C588.419 85.9022 588.597 85.9714 588.779 85.9797C588.961 85.988 589.138 85.935 589.288 85.828C589.437 85.7209 589.551 85.5649 589.614 85.3809L590.396 83.1111L592.502 82.3541C592.673 82.2929 592.82 82.1749 592.924 82.0162C593.028 81.8575 593.084 81.6656 593.084 81.4663C593.085 81.2671 593.029 81.0701 592.925 80.9019C592.821 80.7336 592.674 80.6023 592.503 80.5254L590.399 79.5764L589.621 77.2354C589.559 77.0452 589.445 76.8783 589.296 76.7572C589.147 76.6362 588.969 76.5668 588.787 76.5585C588.605 76.5502 588.427 76.6033 588.277 76.7108C588.128 76.8182 588.014 76.9747 587.951 77.1591L587.17 79.429L585.064 80.1859C584.893 80.2472 584.746 80.3651 584.642 80.5238C584.537 80.6826 584.481 80.8745 584.481 81.0737C584.481 81.2729 584.537 81.4699 584.641 81.6382C584.744 81.8064 584.892 81.9378 585.062 82.0146Z" fill="#FFE500"/>
    <path d="M225.598 184.105L227.651 185.005L228.439 188.316C228.489 188.528 228.6 188.717 228.755 188.854C228.909 188.99 229.099 189.067 229.294 189.071C229.489 189.075 229.679 189.007 229.835 188.878C229.99 188.748 230.102 188.564 230.154 188.354L230.966 185.079L233.025 184.27C233.195 184.203 233.343 184.079 233.447 183.914C233.551 183.749 233.607 183.551 233.608 183.348C233.609 183.144 233.554 182.944 233.451 182.774C233.348 182.605 233.202 182.474 233.032 182.399L230.989 181.502L230.196 177.87C230.149 177.653 230.038 177.459 229.883 177.319C229.727 177.179 229.535 177.1 229.337 177.095C229.139 177.091 228.946 177.161 228.789 177.294C228.632 177.428 228.521 177.617 228.472 177.832L227.653 181.428L225.604 182.234C225.434 182.301 225.287 182.425 225.183 182.59C225.078 182.755 225.022 182.953 225.021 183.156C225.021 183.36 225.076 183.56 225.179 183.73C225.282 183.899 225.428 184.03 225.598 184.105Z" fill="#FFE500"/>
    <path d="M254.594 204.759L256.69 205.677L257.458 208.049C257.521 208.241 257.634 208.408 257.782 208.528C257.93 208.647 258.107 208.714 258.289 208.718C258.47 208.722 258.647 208.663 258.797 208.55C258.946 208.437 259.06 208.275 259.124 208.086L259.909 205.748L262.011 204.924C262.181 204.857 262.328 204.733 262.433 204.568C262.537 204.404 262.593 204.206 262.594 204.003C262.595 203.799 262.54 203.599 262.437 203.43C262.334 203.261 262.187 203.13 262.017 203.056L259.922 202.138L259.153 199.766C259.091 199.574 258.979 199.406 258.83 199.286C258.682 199.166 258.505 199.099 258.323 199.095C258.141 199.091 257.964 199.15 257.815 199.263C257.665 199.377 257.551 199.539 257.488 199.729L256.703 202.067L254.601 202.891C254.43 202.958 254.283 203.082 254.179 203.246C254.075 203.411 254.018 203.609 254.018 203.812C254.017 204.015 254.072 204.215 254.175 204.385C254.278 204.554 254.424 204.684 254.594 204.759Z" fill="#FFE500"/>
    <path d="M1229.69 179.567L1231.8 180.229L1232.66 183.37C1232.72 183.572 1232.83 183.745 1232.99 183.861C1233.15 183.978 1233.35 184.033 1233.55 184.017C1233.74 184.001 1233.94 183.915 1234.09 183.772C1234.25 183.63 1234.36 183.439 1234.41 183.229L1235.18 179.956L1237.26 178.954C1237.44 178.871 1237.58 178.735 1237.69 178.564C1237.79 178.392 1237.84 178.194 1237.84 177.996C1237.84 177.797 1237.78 177.608 1237.67 177.454C1237.56 177.299 1237.41 177.187 1237.24 177.132L1235.14 176.472L1234.27 173.019C1234.22 172.812 1234.1 172.635 1233.94 172.515C1233.78 172.394 1233.58 172.338 1233.38 172.354C1233.18 172.371 1232.98 172.459 1232.82 172.605C1232.67 172.751 1232.56 172.947 1232.51 173.161L1231.74 176.747L1229.66 177.745C1229.49 177.828 1229.34 177.965 1229.24 178.136C1229.14 178.307 1229.08 178.506 1229.09 178.704C1229.09 178.902 1229.15 179.091 1229.26 179.246C1229.37 179.4 1229.52 179.512 1229.69 179.567Z" fill="#FFE500"/>
    <path d="M1290.67 225.218L1292.81 225.889L1293.64 228.105C1293.7 228.285 1293.82 228.435 1293.97 228.536C1294.13 228.636 1294.31 228.682 1294.49 228.667C1294.67 228.652 1294.85 228.577 1295 228.452C1295.15 228.328 1295.27 228.159 1295.33 227.969L1296.08 225.626L1298.2 224.61C1298.37 224.528 1298.52 224.393 1298.63 224.223C1298.73 224.052 1298.78 223.856 1298.78 223.659C1298.78 223.462 1298.72 223.274 1298.61 223.121C1298.5 222.968 1298.35 222.856 1298.18 222.802L1296.03 222.131L1295.21 219.915C1295.14 219.735 1295.03 219.584 1294.87 219.483C1294.72 219.382 1294.54 219.336 1294.36 219.351C1294.17 219.366 1293.99 219.441 1293.84 219.566C1293.69 219.692 1293.58 219.861 1293.52 220.051L1292.76 222.394L1290.64 223.41C1290.47 223.492 1290.32 223.627 1290.22 223.797C1290.12 223.968 1290.06 224.164 1290.07 224.361C1290.07 224.558 1290.13 224.746 1290.24 224.899C1290.34 225.052 1290.5 225.164 1290.67 225.218Z" fill="#FFE500"/>
    <defs>
    <linearGradient id="paint0_linear_0_1" x1="821.092" y1="-38.4861" x2="722.517" y2="377.302" gradientUnits="userSpaceOnUse">
    <stop stop-color="#AB2DAE" stop-opacity="0.979943"/>
    <stop offset="1" stop-color="#17148F" stop-opacity="0.96"/>
    </linearGradient>
    </defs>
    </svg>
    