<svg width="341" height="33" viewBox="0 0 341 33" fill="none" xmlns="http://www.w3.org/2000/svg">
    <path d="M0.6435 26.784C0.7715 26.4853 1.1235 25.696 1.6995 24.416C2.2755 23.1573 3.02217 21.5147 3.9395 19.488C4.87817 17.44 5.9235 15.1253 7.0755 12.544C8.24883 9.94133 9.48617 7.18933 10.7875 4.288C10.8515 4.13867 10.9155 3.94667 10.9795 3.712C11.0648 3.456 11.1075 3.21067 11.1075 2.976C11.1075 2.74133 11.0328 2.54933 10.8835 2.4C10.7555 2.22933 10.4675 2.144 10.0195 2.144C9.1235 2.144 8.37683 2.45333 7.7795 3.072C7.2035 3.66933 6.76617 4.416 6.4675 5.312C6.19017 6.208 6.0515 7.09333 6.0515 7.968C6.0515 8.18133 6.0515 8.36267 6.0515 8.512C6.07283 8.66133 6.09417 8.81067 6.1155 8.96C5.71017 8.96 5.3795 8.82133 5.1235 8.544C4.88883 8.24533 4.7075 7.89333 4.5795 7.488C4.47283 7.06133 4.4195 6.67733 4.4195 6.336C4.4195 5.632 4.6115 4.96 4.9955 4.32C5.3795 3.68 5.87017 3.104 6.4675 2.592C7.08617 2.08 7.75817 1.68533 8.4835 1.408C9.23017 1.10933 9.9555 0.959999 10.6595 0.959999C11.3635 0.959999 11.9502 1.16267 12.4195 1.568C12.9102 1.952 13.2728 2.656 13.5075 3.68C13.7635 4.704 13.8915 6.18667 13.8915 8.128C13.8915 9.45067 13.8382 10.8587 13.7315 12.352C13.6462 13.8453 13.5502 15.3173 13.4435 16.768C13.3368 18.2187 13.2622 19.5413 13.2195 20.736C13.5608 19.4347 14.0408 18.048 14.6595 16.576C15.2995 15.104 15.9928 13.6427 16.7395 12.192C17.5075 10.72 18.2648 9.344 19.0115 8.064C19.7582 6.784 20.4302 5.67467 21.0275 4.736C21.6248 3.79733 22.0622 3.11467 22.3395 2.688C22.6382 2.26133 22.8942 1.94133 23.1075 1.728C23.3208 1.49333 23.5982 1.376 23.9395 1.376C24.2382 1.376 24.5795 1.45067 24.9635 1.6C24.8142 1.984 24.6008 2.56 24.3235 3.328C24.0675 4.07467 23.8008 4.992 23.5235 6.08C23.1822 7.38133 22.8408 8.864 22.4995 10.528C22.1582 12.1707 21.8382 13.8453 21.5395 15.552C21.2622 17.2587 21.0382 18.8693 20.8675 20.384C20.6968 21.8773 20.6115 23.136 20.6115 24.16C20.6115 24.6293 20.6328 24.992 20.6755 25.248C20.7182 25.504 20.7715 25.728 20.8355 25.92C20.9208 26.1333 21.0062 26.4213 21.0915 26.784C20.3662 26.784 19.8115 26.6667 19.4275 26.432C19.0435 26.1973 18.7875 25.8133 18.6595 25.28C18.5315 24.768 18.4675 24.0747 18.4675 23.2C18.4675 20.6613 18.7875 17.9413 19.4275 15.04C20.0888 12.1173 20.8355 9.088 21.6675 5.952C21.0488 6.74133 20.3982 7.744 19.7155 8.96C19.0542 10.1547 18.3822 11.456 17.6995 12.864C17.0382 14.2507 16.3982 15.648 15.7795 17.056C15.1822 18.4427 14.6488 19.7333 14.1795 20.928C13.7102 22.1227 13.3475 23.1147 13.0915 23.904C12.9635 23.9467 12.8782 23.9787 12.8355 24C12.7928 24.0213 12.7182 24.032 12.6115 24.032C12.0355 24.032 11.6515 23.6907 11.4595 23.008C11.2888 22.3253 11.2035 21.3653 11.2035 20.128C11.2035 19.2533 11.2248 18.2187 11.2675 17.024C11.3315 15.808 11.3955 14.56 11.4595 13.28C11.5235 12 11.5768 10.7733 11.6195 9.6C11.6835 8.40533 11.7155 7.38133 11.7155 6.528C11.7155 6.10133 11.7048 5.74933 11.6835 5.472C11.6835 5.19467 11.6728 4.94933 11.6515 4.736C9.94483 8.704 8.5155 12.096 7.3635 14.912C6.2115 17.7067 5.24083 19.9787 4.4515 21.728C3.6835 23.4773 3.00083 24.7573 2.4035 25.568C1.80617 26.3787 1.2195 26.784 0.6435 26.784ZM26.3485 25.504C25.6872 25.504 25.1325 25.28 24.6845 24.832C24.2152 24.4053 23.9805 23.744 23.9805 22.848C23.9805 22.08 24.1512 21.2587 24.4925 20.384C24.8338 19.488 25.3032 18.6133 25.9005 17.76C26.4978 16.8853 27.1698 16.096 27.9165 15.392C28.6845 14.6667 29.4845 14.0907 30.3165 13.664C31.1698 13.2373 32.0125 13.024 32.8445 13.024C33.6765 13.024 34.3698 13.248 34.9245 13.696C35.4792 14.1227 35.7565 14.6987 35.7565 15.424C35.7565 15.9573 35.6072 16.32 35.3085 16.512C35.0312 16.704 34.6578 16.8 34.1885 16.8C34.2312 16.6293 34.2632 16.448 34.2845 16.256C34.3272 16.0427 34.3485 15.8507 34.3485 15.68C34.3485 15.1893 34.2312 14.7733 33.9965 14.432C33.7618 14.0693 33.3565 13.888 32.7805 13.888C32.1832 13.888 31.5752 14.1013 30.9565 14.528C30.3378 14.9333 29.7405 15.488 29.1645 16.192C28.5885 16.8747 28.0765 17.6213 27.6285 18.432C27.1805 19.2427 26.8285 20.0427 26.5725 20.832C26.3165 21.6213 26.1885 22.3253 26.1885 22.944C26.1885 23.776 26.4765 24.192 27.0525 24.192C27.5432 24.192 28.0765 23.968 28.6525 23.52C29.2285 23.0507 29.8152 22.464 30.4125 21.76C31.0312 21.0347 31.6178 20.288 32.1725 19.52C32.7272 18.752 33.2178 18.048 33.6445 17.408C33.7298 17.28 33.7832 17.216 33.8045 17.216C33.9325 17.2373 34.0925 17.28 34.2845 17.344C34.4978 17.408 34.6792 17.4933 34.8285 17.6C34.9778 17.7067 35.0525 17.8453 35.0525 18.016C35.0525 18.208 34.9565 18.4747 34.7645 18.816C34.5725 19.136 34.3592 19.5093 34.1245 19.936C33.8898 20.3627 33.6765 20.8 33.4845 21.248C33.2925 21.6747 33.1965 22.08 33.1965 22.464C33.1965 22.784 33.2818 23.104 33.4525 23.424C33.6232 23.7227 33.9005 23.872 34.2845 23.872C34.8605 23.872 35.6178 23.456 36.5565 22.624C37.4952 21.7707 38.4445 20.5013 39.4045 18.816L39.7245 19.136C39.2765 20.288 38.7005 21.3013 37.9965 22.176C37.2925 23.0507 36.5352 23.7333 35.7245 24.224C34.9352 24.7147 34.1565 24.96 33.3885 24.96C32.5992 24.96 32.0125 24.7253 31.6285 24.256C31.2658 23.7867 31.0845 23.2747 31.0845 22.72C31.0845 22.592 31.0952 22.4533 31.1165 22.304C31.1378 22.1333 31.1592 21.9627 31.1805 21.792C30.2632 23.0293 29.4205 23.9573 28.6525 24.576C27.9058 25.1947 27.1378 25.504 26.3485 25.504ZM48.254 25.216C47.6567 25.216 47.1447 25.0133 46.718 24.608C46.2913 24.2027 45.95 23.6907 45.694 23.072C45.4593 22.4533 45.278 21.824 45.15 21.184C45.0433 20.5227 44.99 19.9467 44.99 19.456C45.2247 19.456 45.566 19.4027 46.014 19.296C46.462 19.168 46.9207 18.9867 47.39 18.752C47.8593 18.496 48.254 18.176 48.574 17.792C48.9153 17.3867 49.086 16.9173 49.086 16.384C49.086 15.936 48.926 15.584 48.606 15.328C48.286 15.072 47.9127 14.944 47.486 14.944C46.8247 14.944 46.206 15.1787 45.63 15.648C45.054 16.096 44.5313 16.6933 44.062 17.44C43.614 18.1653 43.2087 18.944 42.846 19.776C42.4833 20.608 42.174 21.3973 41.918 22.144C41.662 22.8907 41.4487 23.5093 41.278 24C41.15 24.384 40.9687 24.64 40.734 24.768C40.4993 24.9173 40.254 24.992 39.998 24.992C39.6353 24.992 39.3687 24.8427 39.198 24.544C39.0487 24.2453 38.9527 23.872 38.91 23.424C38.8887 22.9547 38.878 22.4747 38.878 21.984C38.878 20.8747 39.0593 19.5947 39.422 18.144C39.7847 16.6933 40.2647 15.1893 40.862 13.632C41.4807 12.0533 42.1527 10.528 42.878 9.056C43.6033 7.584 44.3287 6.25067 45.054 5.056C45.7793 3.86133 46.4513 2.912 47.07 2.208C47.6887 1.504 48.19 1.152 48.574 1.152C48.8727 1.152 49.1073 1.35467 49.278 1.76C49.47 2.16533 49.566 2.656 49.566 3.232C49.566 3.95733 49.406 4.77867 49.086 5.696C48.766 6.592 48.3073 7.49867 47.71 8.416C47.134 9.33333 46.4407 10.1973 45.63 11.008C44.8407 11.8187 43.9767 12.512 43.038 13.088C42.334 14.816 41.8007 16.5013 41.438 18.144C41.0967 19.7653 40.926 21.1307 40.926 22.24C41.2673 21.3867 41.6727 20.448 42.142 19.424C42.6327 18.4 43.1873 17.4187 43.806 16.48C44.4247 15.5413 45.0967 14.7733 45.822 14.176C46.5473 13.5787 47.3047 13.28 48.094 13.28C48.8833 13.28 49.5553 13.5573 50.11 14.112C50.6647 14.6667 50.942 15.3387 50.942 16.128C50.942 16.8107 50.7607 17.3973 50.398 17.888C50.0567 18.3573 49.63 18.7413 49.118 19.04C48.6273 19.3173 48.126 19.5307 47.614 19.68C47.1233 19.808 46.718 19.872 46.398 19.872C46.4193 20.0427 46.4833 20.352 46.59 20.8C46.6967 21.248 46.846 21.7173 47.038 22.208C47.2513 22.6987 47.5073 23.1253 47.806 23.488C48.1047 23.8293 48.4673 24 48.894 24C49.5127 24 50.0993 23.7653 50.654 23.296C51.2087 22.8267 51.7313 22.208 52.222 21.44C52.734 20.6507 53.2033 19.7653 53.63 18.784L53.95 19.104C53.6513 20.1493 53.1927 21.1413 52.574 22.08C51.9553 22.9973 51.262 23.744 50.494 24.32C49.7473 24.9173 49.0007 25.216 48.254 25.216ZM43.582 11.808C44.5633 11.0187 45.4167 10.1227 46.142 9.12C46.8887 8.11733 47.4647 7.15733 47.87 6.24C48.2753 5.30133 48.478 4.56533 48.478 4.032C48.478 3.92533 48.4673 3.85067 48.446 3.808C48.446 3.76533 48.4247 3.744 48.382 3.744C48.1687 3.744 47.7953 4.11733 47.262 4.864C46.75 5.61067 46.1633 6.60267 45.502 7.84C44.8407 9.056 44.2007 10.3787 43.582 11.808ZM56.4873 25.408C55.1859 25.408 54.2046 25.0453 53.5433 24.32C52.9032 23.616 52.5832 22.7413 52.5832 21.696C52.5832 20.736 52.8179 19.7227 53.2873 18.656C53.7779 17.5893 54.4179 16.5867 55.2073 15.648C56.0179 14.7093 56.9033 13.952 57.8633 13.376C58.8233 12.7787 59.7726 12.48 60.7113 12.48C61.2019 12.48 61.6499 12.608 62.0553 12.864C62.4819 13.12 62.6953 13.6427 62.6953 14.432C62.6953 15.2427 62.4499 16.0107 61.9593 16.736C61.4899 17.44 60.8606 18.0693 60.0713 18.624C59.3033 19.1787 58.4499 19.6373 57.5113 20C56.5939 20.3413 55.6766 20.5547 54.7593 20.64C54.7166 20.8533 54.6846 21.056 54.6633 21.248C54.6419 21.44 54.6313 21.6213 54.6313 21.792C54.6313 22.112 54.6633 22.432 54.7273 22.752C54.8126 23.072 54.9513 23.3707 55.1432 23.648C55.3353 23.904 55.5913 24.1067 55.9113 24.256C56.2526 24.4053 56.6686 24.48 57.1593 24.48C58.0766 24.48 58.9833 24.224 59.8793 23.712C60.7753 23.1787 61.6073 22.4853 62.3753 21.632C63.1433 20.7787 63.7939 19.84 64.3273 18.816L64.7113 19.104C64.1353 20.384 63.3993 21.4933 62.5033 22.432C61.6286 23.3707 60.6686 24.096 59.6233 24.608C58.5993 25.1413 57.5539 25.408 56.4873 25.408ZM54.9193 20.032C55.4953 19.84 56.1459 19.5627 56.8713 19.2C57.5966 18.816 58.2899 18.368 58.9513 17.856C59.6339 17.344 60.1886 16.7787 60.6153 16.16C61.0633 15.5413 61.2873 14.8907 61.2873 14.208C61.2873 13.9733 61.2446 13.792 61.1593 13.664C61.0739 13.536 60.8926 13.472 60.6153 13.472C60.1033 13.472 59.5593 13.6747 58.9833 14.08C58.4073 14.464 57.8526 14.976 57.3193 15.616C56.7859 16.256 56.3059 16.96 55.8793 17.728C55.4526 18.496 55.1326 19.264 54.9193 20.032ZM73.376 32.96C72.8427 32.96 72.3733 32.8107 71.968 32.512C71.5627 32.2347 71.36 31.8187 71.36 31.264C71.36 30.5813 71.5307 29.9733 71.872 29.44C72.2133 28.9067 72.672 28.416 73.248 27.968C73.824 27.52 74.4853 27.0933 75.232 26.688C75.9787 26.2827 76.7573 25.8773 77.568 25.472C77.8667 24.6827 78.1653 23.808 78.464 22.848C78.784 21.8667 79.0827 20.7893 79.36 19.616C78.6773 20.7253 77.9413 21.6853 77.152 22.496C76.384 23.2853 75.5627 23.68 74.688 23.68C74.2827 23.68 73.8773 23.5947 73.472 23.424C73.088 23.232 72.768 22.944 72.512 22.56C72.256 22.176 72.128 21.6853 72.128 21.088C72.128 20.4907 72.224 19.7973 72.416 19.008C72.6293 18.2187 72.8853 17.4507 73.184 16.704C73.4827 15.9573 73.792 15.3387 74.112 14.848C74.432 14.3573 74.7093 14.112 74.944 14.112C75.0293 14.112 75.1787 14.144 75.392 14.208C75.6267 14.272 75.84 14.368 76.032 14.496C76.2453 14.6027 76.352 14.72 76.352 14.848C76.16 15.1253 75.9467 15.52 75.712 16.032C75.4773 16.544 75.2427 17.12 75.008 17.76C74.7947 18.3787 74.6133 18.9867 74.464 19.584C74.3147 20.1813 74.24 20.6933 74.24 21.12C74.24 21.504 74.3253 21.8133 74.496 22.048C74.6667 22.2827 74.9653 22.4 75.392 22.4C75.7973 22.4 76.2453 22.208 76.736 21.824C77.248 21.4187 77.7493 20.9067 78.24 20.288C78.752 19.6693 79.2213 19.008 79.648 18.304C79.712 18.0693 79.7653 17.8347 79.808 17.6C79.872 17.344 79.9253 17.088 79.968 16.832C80.032 16.5333 80.1813 16.192 80.416 15.808C80.672 15.4027 81.0667 15.2 81.6 15.2C81.7067 15.2 81.8133 15.2107 81.92 15.232C82.0267 15.232 82.144 15.2533 82.272 15.296C82.272 15.6373 82.1653 16.2773 81.952 17.216C81.76 18.1333 81.472 19.2107 81.088 20.448C80.7253 21.6853 80.288 22.9547 79.776 24.256C80.7787 23.872 81.76 23.2427 82.72 22.368C83.68 21.472 84.4587 20.288 85.056 18.816L85.472 19.136C85.152 20.16 84.6613 21.056 84 21.824C83.36 22.5707 82.6347 23.2213 81.824 23.776C81.0133 24.3093 80.2133 24.7573 79.424 25.12C78.8693 26.4853 78.2613 27.7653 77.6 28.96C76.96 30.1547 76.2773 31.1147 75.552 31.84C74.848 32.5867 74.1227 32.96 73.376 32.96ZM73.216 31.936C73.536 31.936 74.0693 31.5093 74.816 30.656C75.584 29.824 76.3947 28.352 77.248 26.24C76.3733 26.7093 75.5627 27.168 74.816 27.616C74.0693 28.0853 73.472 28.5867 73.024 29.12C72.576 29.6533 72.352 30.272 72.352 30.976C72.352 31.1467 72.416 31.3493 72.544 31.584C72.672 31.8187 72.896 31.936 73.216 31.936ZM86.6455 25.024C85.7282 25.024 85.0775 24.736 84.6935 24.16C84.3095 23.6053 84.1175 22.9227 84.1175 22.112C84.1175 21.4507 84.2242 20.768 84.4375 20.064C84.6508 19.36 84.9282 18.6987 85.2695 18.08C85.6322 17.4613 86.0268 16.96 86.4535 16.576C86.9015 16.192 87.3495 16 87.7975 16C87.9042 16 88.0108 16.0213 88.1175 16.064C88.2455 16.0853 88.3628 16.1173 88.4695 16.16C88.2775 16.3307 88.0428 16.6507 87.7655 17.12C87.5095 17.568 87.2642 18.0907 87.0295 18.688C86.7948 19.264 86.5922 19.84 86.4215 20.416C86.2722 20.992 86.1975 21.4827 86.1975 21.888C86.1975 22.528 86.3042 22.9973 86.5175 23.296C86.7308 23.5733 87.0082 23.712 87.3495 23.712C87.7975 23.712 88.3308 23.4773 88.9495 23.008C89.5682 22.5173 90.1762 21.8987 90.7735 21.152C90.1762 20.6613 89.7068 20.0213 89.3655 19.232C89.0455 18.4213 88.8855 17.6 88.8855 16.768C88.8855 16.064 89.0028 15.4027 89.2375 14.784C89.4935 14.1653 89.8562 13.6747 90.3255 13.312C90.7948 12.928 91.3602 12.736 92.0215 12.736C92.8962 12.736 93.4828 12.9707 93.7815 13.44C94.0802 13.9093 94.2295 14.496 94.2295 15.2C94.2295 16.032 94.0268 16.96 93.6215 17.984C93.2162 18.9867 92.7042 19.9573 92.0855 20.896C92.4695 21.1093 92.8748 21.216 93.3015 21.216C93.6428 21.216 94.0268 21.152 94.4535 21.024C94.8802 20.8747 95.2962 20.6293 95.7015 20.288C96.1282 19.9467 96.4695 19.488 96.7255 18.912L97.1095 19.232C96.6828 20.2347 96.0748 20.9493 95.2855 21.376C94.5175 21.7813 93.7815 21.984 93.0775 21.984C92.8002 21.984 92.5335 21.9627 92.2775 21.92C92.0215 21.856 91.7762 21.7707 91.5415 21.664C90.8162 22.624 90.0162 23.424 89.1415 24.064C88.2882 24.704 87.4562 25.024 86.6455 25.024ZM91.3495 20.32C91.8828 19.5307 92.3202 18.7093 92.6615 17.856C93.0242 16.9813 93.2055 16.16 93.2055 15.392C93.2055 14.7733 93.1095 14.3253 92.9175 14.048C92.7468 13.7493 92.5228 13.6 92.2455 13.6C91.8188 13.6 91.3815 13.9093 90.9335 14.528C90.4855 15.1467 90.2615 15.9253 90.2615 16.864C90.2615 17.4827 90.3468 18.112 90.5175 18.752C90.7095 19.3707 90.9868 19.8933 91.3495 20.32ZM98.525 24.96C97.7997 24.96 97.213 24.64 96.765 24C96.3383 23.3387 96.125 22.5813 96.125 21.728C96.125 21.1093 96.221 20.3947 96.413 19.584C96.6263 18.7733 96.8823 17.9733 97.181 17.184C97.4797 16.3947 97.789 15.744 98.109 15.232C98.429 14.72 98.7063 14.464 98.941 14.464C99.0477 14.464 99.229 14.528 99.485 14.656C99.741 14.7627 99.9543 14.912 100.125 15.104C99.8903 15.4667 99.6023 16.0213 99.261 16.768C98.9197 17.5147 98.621 18.3147 98.365 19.168C98.109 20.0213 97.981 20.8107 97.981 21.536C97.981 21.7067 98.0023 21.9733 98.045 22.336C98.0877 22.6773 98.1943 22.9867 98.365 23.264C98.5357 23.5413 98.7917 23.68 99.133 23.68C99.5383 23.68 99.9543 23.4773 100.381 23.072C100.808 22.6453 101.234 22.1013 101.661 21.44C102.109 20.7787 102.536 20.064 102.941 19.296C103.346 18.528 103.72 17.792 104.061 17.088C104.424 16.384 104.722 15.7973 104.957 15.328C105.085 15.3493 105.266 15.392 105.501 15.456C105.757 15.52 105.981 15.6053 106.173 15.712C106.386 15.8187 106.493 15.968 106.493 16.16C106.493 16.2453 106.386 16.5333 106.173 17.024C105.96 17.4933 105.704 18.08 105.405 18.784C105.128 19.4667 104.882 20.16 104.669 20.864C104.456 21.568 104.349 22.1867 104.349 22.72C104.349 23.104 104.424 23.4133 104.573 23.648C104.744 23.8827 105.021 24 105.405 24C105.853 24 106.397 23.7973 107.037 23.392C107.677 22.9867 108.328 22.4 108.989 21.632C109.65 20.8427 110.237 19.904 110.749 18.816L111.165 19.104C110.717 20.256 110.13 21.28 109.405 22.176C108.68 23.0507 107.912 23.7333 107.101 24.224C106.29 24.7147 105.501 24.96 104.733 24.96C104.178 24.96 103.73 24.8533 103.389 24.64C103.069 24.4267 102.834 24.1387 102.685 23.776C102.557 23.4133 102.493 23.0187 102.493 22.592C102.493 22.336 102.514 22.08 102.557 21.824C102.6 21.5467 102.653 21.2693 102.717 20.992C102.333 21.696 101.917 22.3573 101.469 22.976C101.021 23.5733 100.552 24.0533 100.061 24.416C99.5703 24.7787 99.0583 24.96 98.525 24.96ZM115.692 24.832C114.967 24.832 114.391 24.64 113.964 24.256C113.559 23.872 113.356 23.3707 113.356 22.752C113.356 22.112 113.506 21.44 113.804 20.736C114.103 20.032 114.391 19.3387 114.668 18.656C114.967 17.952 115.116 17.3227 115.116 16.768C115.116 16.0853 114.914 15.584 114.508 15.264C114.124 14.9227 113.73 14.6133 113.324 14.336C112.834 15.5947 112.322 16.7893 111.788 17.92C111.255 19.0507 110.818 19.904 110.476 20.48L110.188 19.936C110.487 19.3813 110.871 18.5707 111.34 17.504C111.831 16.4373 112.311 15.2213 112.78 13.856C112.567 13.6427 112.46 13.3867 112.46 13.088C112.46 12.448 112.642 11.9253 113.004 11.52C113.367 11.1147 113.634 10.912 113.804 10.912C114.039 10.912 114.167 11.0187 114.188 11.232C114.231 11.424 114.252 11.5733 114.252 11.68C114.252 11.7867 114.188 12 114.06 12.32C113.954 12.6187 113.9 12.8 113.9 12.864C113.9 13.1627 114.06 13.44 114.38 13.696C114.722 13.9307 115.106 14.208 115.532 14.528C115.959 14.8267 116.332 15.2 116.652 15.648C116.994 16.0747 117.164 16.6293 117.164 17.312C117.164 17.952 117.026 18.6027 116.748 19.264C116.492 19.9253 116.226 20.5547 115.948 21.152C115.692 21.7493 115.564 22.272 115.564 22.72C115.564 23.104 115.66 23.36 115.852 23.488C116.044 23.616 116.268 23.68 116.524 23.68C117.036 23.68 117.559 23.52 118.092 23.2C118.647 22.88 119.18 22.4747 119.692 21.984C120.204 21.4933 120.663 20.9813 121.068 20.448C121.474 19.8933 121.772 19.3813 121.964 18.912L122.38 19.232C121.975 20.128 121.42 21.0133 120.716 21.888C120.012 22.7413 119.223 23.4453 118.348 24C117.495 24.5547 116.61 24.832 115.692 24.832ZM134.81 26.784C134.148 26.784 133.519 26.688 132.922 26.496C132.324 26.3253 131.812 25.9413 131.386 25.344C131.599 24.32 131.855 23.2213 132.154 22.048C132.474 20.8533 132.815 19.6373 133.178 18.4C133.54 17.1413 133.903 15.9147 134.266 14.72C134.65 13.504 135.012 12.3733 135.354 11.328C135.695 10.2827 136.004 9.36533 136.282 8.576C136.559 7.78667 136.772 7.18933 136.922 6.784C136.986 6.61333 137.092 6.368 137.242 6.048C137.391 5.70667 137.572 5.36533 137.786 5.024C137.999 4.68267 138.244 4.39467 138.522 4.16C138.799 3.904 139.098 3.776 139.418 3.776C139.716 3.776 140.015 3.88267 140.314 4.096C139.652 5.632 138.98 7.328 138.298 9.184C137.636 11.04 136.996 12.96 136.378 14.944C135.759 16.9067 135.194 18.8267 134.682 20.704C134.17 22.5813 133.743 24.288 133.402 25.824C133.7 25.8667 133.946 25.8987 134.138 25.92C134.351 25.9413 134.564 25.952 134.778 25.952C136.143 25.952 137.455 25.632 138.714 24.992C139.994 24.3733 141.178 23.52 142.266 22.432C143.375 21.3227 144.346 20.064 145.178 18.656C146.01 17.2267 146.65 15.7227 147.098 14.144C147.567 12.544 147.802 10.9547 147.802 9.376C147.802 7.648 147.524 6.22933 146.97 5.12C146.415 3.98933 145.647 3.15733 144.666 2.624C143.684 2.09067 142.543 1.824 141.242 1.824C139.855 1.824 138.607 2.10133 137.498 2.656C136.388 3.21067 135.514 3.95733 134.874 4.896C134.234 5.83467 133.914 6.89067 133.914 8.064C133.914 8.32 133.924 8.544 133.946 8.736C133.988 8.928 134.031 9.09867 134.074 9.248C133.37 9.248 132.868 9.07733 132.57 8.736C132.292 8.37333 132.154 7.94667 132.154 7.456C132.154 6.70933 132.41 5.96267 132.922 5.216C133.455 4.448 134.18 3.744 135.098 3.104C136.036 2.464 137.114 1.952 138.33 1.568C139.546 1.16267 140.836 0.959999 142.202 0.959999C144.122 0.959999 145.658 1.35467 146.81 2.144C147.983 2.912 148.836 3.95733 149.37 5.28C149.903 6.60267 150.17 8.08533 150.17 9.728C150.17 11.584 149.882 13.3653 149.306 15.072C148.73 16.7573 147.93 18.3147 146.906 19.744C145.903 21.152 144.751 22.3893 143.45 23.456C142.148 24.5013 140.751 25.312 139.258 25.888C137.786 26.4853 136.303 26.784 134.81 26.784ZM155.817 24.832C155.092 24.832 154.516 24.64 154.089 24.256C153.684 23.872 153.481 23.3707 153.481 22.752C153.481 22.112 153.631 21.44 153.929 20.736C154.228 20.032 154.516 19.3387 154.793 18.656C155.092 17.952 155.241 17.3227 155.241 16.768C155.241 16.0853 155.039 15.584 154.633 15.264C154.249 14.9227 153.855 14.6133 153.449 14.336C152.959 15.5947 152.447 16.7893 151.913 17.92C151.38 19.0507 150.943 19.904 150.601 20.48L150.313 19.936C150.612 19.3813 150.996 18.5707 151.465 17.504C151.956 16.4373 152.436 15.2213 152.905 13.856C152.692 13.6427 152.585 13.3867 152.585 13.088C152.585 12.448 152.767 11.9253 153.129 11.52C153.492 11.1147 153.759 10.912 153.929 10.912C154.164 10.912 154.292 11.0187 154.313 11.232C154.356 11.424 154.377 11.5733 154.377 11.68C154.377 11.7867 154.313 12 154.185 12.32C154.079 12.6187 154.025 12.8 154.025 12.864C154.025 13.1627 154.185 13.44 154.505 13.696C154.847 13.9307 155.231 14.208 155.657 14.528C156.084 14.8267 156.457 15.2 156.777 15.648C157.119 16.0747 157.289 16.6293 157.289 17.312C157.289 17.952 157.151 18.6027 156.873 19.264C156.617 19.9253 156.351 20.5547 156.073 21.152C155.817 21.7493 155.689 22.272 155.689 22.72C155.689 23.104 155.785 23.36 155.977 23.488C156.169 23.616 156.393 23.68 156.649 23.68C157.161 23.68 157.684 23.52 158.217 23.2C158.772 22.88 159.305 22.4747 159.817 21.984C160.329 21.4933 160.788 20.9813 161.193 20.448C161.599 19.8933 161.897 19.3813 162.089 18.912L162.505 19.232C162.1 20.128 161.545 21.0133 160.841 21.888C160.137 22.7413 159.348 23.4453 158.473 24C157.62 24.5547 156.735 24.832 155.817 24.832ZM164.862 25.408C163.561 25.408 162.58 25.0453 161.918 24.32C161.278 23.616 160.958 22.7413 160.958 21.696C160.958 20.736 161.193 19.7227 161.662 18.656C162.153 17.5893 162.793 16.5867 163.582 15.648C164.393 14.7093 165.278 13.952 166.238 13.376C167.198 12.7787 168.148 12.48 169.086 12.48C169.577 12.48 170.025 12.608 170.43 12.864C170.857 13.12 171.07 13.6427 171.07 14.432C171.07 15.2427 170.825 16.0107 170.334 16.736C169.865 17.44 169.236 18.0693 168.446 18.624C167.678 19.1787 166.825 19.6373 165.886 20C164.969 20.3413 164.052 20.5547 163.134 20.64C163.092 20.8533 163.06 21.056 163.038 21.248C163.017 21.44 163.006 21.6213 163.006 21.792C163.006 22.112 163.038 22.432 163.102 22.752C163.188 23.072 163.326 23.3707 163.518 23.648C163.71 23.904 163.966 24.1067 164.286 24.256C164.628 24.4053 165.044 24.48 165.534 24.48C166.452 24.48 167.358 24.224 168.254 23.712C169.15 23.1787 169.982 22.4853 170.75 21.632C171.518 20.7787 172.169 19.84 172.702 18.816L173.086 19.104C172.51 20.384 171.774 21.4933 170.878 22.432C170.004 23.3707 169.044 24.096 167.998 24.608C166.974 25.1413 165.929 25.408 164.862 25.408ZM163.294 20.032C163.87 19.84 164.521 19.5627 165.246 19.2C165.972 18.816 166.665 18.368 167.326 17.856C168.009 17.344 168.564 16.7787 168.99 16.16C169.438 15.5413 169.662 14.8907 169.662 14.208C169.662 13.9733 169.62 13.792 169.534 13.664C169.449 13.536 169.268 13.472 168.99 13.472C168.478 13.472 167.934 13.6747 167.358 14.08C166.782 14.464 166.228 14.976 165.694 15.616C165.161 16.256 164.681 16.96 164.254 17.728C163.828 18.496 163.508 19.264 163.294 20.032ZM173.599 25.504C172.937 25.504 172.383 25.28 171.934 24.832C171.465 24.4053 171.23 23.744 171.23 22.848C171.23 22.08 171.401 21.2587 171.742 20.384C172.084 19.488 172.553 18.6133 173.151 17.76C173.748 16.8853 174.42 16.096 175.167 15.392C175.935 14.6667 176.735 14.0907 177.567 13.664C178.42 13.2373 179.263 13.024 180.095 13.024C180.927 13.024 181.62 13.248 182.175 13.696C182.729 14.1227 183.007 14.6987 183.007 15.424C183.007 15.9573 182.857 16.32 182.559 16.512C182.281 16.704 181.908 16.8 181.439 16.8C181.481 16.6293 181.513 16.448 181.535 16.256C181.577 16.0427 181.599 15.8507 181.599 15.68C181.599 15.1893 181.481 14.7733 181.247 14.432C181.012 14.0693 180.607 13.888 180.031 13.888C179.433 13.888 178.825 14.1013 178.207 14.528C177.588 14.9333 176.991 15.488 176.415 16.192C175.839 16.8747 175.327 17.6213 174.879 18.432C174.431 19.2427 174.079 20.0427 173.823 20.832C173.567 21.6213 173.439 22.3253 173.439 22.944C173.439 23.776 173.727 24.192 174.303 24.192C174.793 24.192 175.327 23.968 175.903 23.52C176.479 23.0507 177.065 22.464 177.663 21.76C178.281 21.0347 178.868 20.288 179.423 19.52C179.977 18.752 180.468 18.048 180.895 17.408C180.98 17.28 181.033 17.216 181.055 17.216C181.183 17.2373 181.343 17.28 181.535 17.344C181.748 17.408 181.929 17.4933 182.079 17.6C182.228 17.7067 182.303 17.8453 182.303 18.016C182.303 18.208 182.207 18.4747 182.015 18.816C181.823 19.136 181.609 19.5093 181.375 19.936C181.14 20.3627 180.927 20.8 180.735 21.248C180.543 21.6747 180.447 22.08 180.447 22.464C180.447 22.784 180.532 23.104 180.703 23.424C180.873 23.7227 181.151 23.872 181.535 23.872C182.111 23.872 182.868 23.456 183.807 22.624C184.745 21.7707 185.695 20.5013 186.655 18.816L186.975 19.136C186.527 20.288 185.951 21.3013 185.247 22.176C184.543 23.0507 183.785 23.7333 182.975 24.224C182.185 24.7147 181.407 24.96 180.639 24.96C179.849 24.96 179.263 24.7253 178.879 24.256C178.516 23.7867 178.335 23.2747 178.335 22.72C178.335 22.592 178.345 22.4533 178.367 22.304C178.388 22.1333 178.409 21.9627 178.431 21.792C177.513 23.0293 176.671 23.9573 175.903 24.576C175.156 25.1947 174.388 25.504 173.599 25.504ZM202.128 24.992C201.381 24.992 200.837 24.7573 200.496 24.288C200.155 23.84 199.984 23.296 199.984 22.656C199.984 22.1227 200.059 21.5893 200.208 21.056C200.379 20.5227 200.539 20 200.688 19.488C200.859 18.976 200.944 18.5173 200.944 18.112C200.944 17.6853 200.848 17.3867 200.656 17.216C200.464 17.0453 200.251 16.96 200.016 16.96C199.483 16.96 198.896 17.376 198.256 18.208C197.637 19.04 196.827 20.2133 195.824 21.728C195.483 22.24 195.195 22.7627 194.96 23.296C194.725 23.808 194.501 24.2773 194.288 24.704C194.117 24.704 193.904 24.6827 193.648 24.64C193.392 24.5973 193.157 24.5227 192.944 24.416C192.752 24.3307 192.656 24.2133 192.656 24.064C192.656 23.9147 192.752 23.5627 192.944 23.008C193.157 22.432 193.392 21.7707 193.648 21.024C193.925 20.256 194.16 19.488 194.352 18.72C194.565 17.9307 194.672 17.2587 194.672 16.704C194.672 16.3413 194.608 16.0533 194.48 15.84C194.373 15.6053 194.171 15.488 193.872 15.488C193.403 15.488 192.837 15.776 192.176 16.352C191.515 16.9067 190.832 17.6427 190.128 18.56C189.424 19.4773 188.752 20.4907 188.112 21.6C187.493 22.688 186.992 23.776 186.608 24.864C186.416 24.864 186.181 24.832 185.904 24.768C185.627 24.704 185.392 24.6187 185.2 24.512C184.987 24.4053 184.88 24.2987 184.88 24.192C184.88 24.064 184.997 23.6907 185.232 23.072C185.445 22.432 185.701 21.6747 186 20.8C186.277 19.904 186.523 18.9973 186.736 18.08C186.971 17.1627 187.088 16.352 187.088 15.648C187.216 15.4987 187.419 15.3493 187.696 15.2C187.973 15.0507 188.261 14.976 188.56 14.976C188.859 14.976 189.072 15.0507 189.2 15.2C189.349 15.3493 189.424 15.552 189.424 15.808C189.424 16.0853 189.339 16.5653 189.168 17.248C189.019 17.9093 188.827 18.6453 188.592 19.456C189.019 18.7733 189.499 18.08 190.032 17.376C190.587 16.6507 191.163 15.9893 191.76 15.392C192.357 14.7947 192.955 14.3147 193.552 13.952C194.171 13.568 194.768 13.376 195.344 13.376C196.005 13.376 196.453 13.6213 196.688 14.112C196.944 14.5813 197.072 15.1467 197.072 15.808C197.072 16.3413 197.008 16.9067 196.88 17.504C196.773 18.08 196.645 18.624 196.496 19.136C196.347 19.6267 196.208 20.0213 196.08 20.32C196.528 19.5093 197.019 18.7307 197.552 17.984C198.107 17.216 198.704 16.5973 199.344 16.128C199.984 15.6373 200.667 15.392 201.392 15.392C202.075 15.392 202.544 15.5947 202.8 16C203.077 16.4053 203.216 16.8853 203.216 17.44C203.216 17.9947 203.12 18.6027 202.928 19.264C202.736 19.9253 202.533 20.5653 202.32 21.184C202.128 21.8027 202.032 22.336 202.032 22.784C202.032 23.0613 202.096 23.3173 202.224 23.552C202.373 23.7653 202.629 23.872 202.992 23.872C203.589 23.872 204.144 23.6053 204.656 23.072C205.189 22.5173 205.68 21.856 206.128 21.088C206.576 20.2987 206.96 19.5413 207.28 18.816L207.664 19.264C207.323 20.16 206.885 21.056 206.352 21.952C205.819 22.8267 205.189 23.552 204.464 24.128C203.76 24.704 202.981 24.992 202.128 24.992ZM215.544 26.784C215.075 26.5067 214.776 26.208 214.648 25.888C214.52 25.5893 214.456 25.3333 214.456 25.12C214.456 24.5227 214.669 23.712 215.096 22.688C215.544 21.664 216.131 20.5013 216.856 19.2C217.603 17.8773 218.424 16.512 219.32 15.104C218.531 15.04 217.859 14.9973 217.304 14.976C216.749 14.9547 216.269 14.944 215.864 14.944H214.744C214.979 14.3253 215.384 13.8987 215.96 13.664C216.557 13.408 217.261 13.28 218.072 13.28C218.435 13.28 218.808 13.3013 219.192 13.344C219.576 13.3867 219.971 13.44 220.376 13.504C221.464 11.8613 222.573 10.272 223.704 8.736C224.856 7.17867 225.923 5.80267 226.904 4.608C227.907 3.392 228.739 2.47467 229.4 1.856C230.019 1.25867 230.531 0.959999 230.936 0.959999C231.171 0.959999 231.427 1.056 231.704 1.248C232.003 1.41867 232.312 1.664 232.632 1.984C232.419 2.15467 232.141 2.61333 231.8 3.36C231.48 4.08533 231.128 5.00267 230.744 6.112C230.381 7.22133 230.019 8.43733 229.656 9.76C229.293 11.0827 228.952 12.4373 228.632 13.824C228.333 15.1893 228.088 16.4907 227.896 17.728C227.725 18.9653 227.64 20.0533 227.64 20.992C227.64 21.8027 227.725 22.432 227.896 22.88C228.088 23.328 228.397 23.552 228.824 23.552C229.379 23.552 230.008 23.168 230.712 22.4C231.416 21.632 232.184 20.4373 233.016 18.816L233.336 19.136C232.696 20.8427 231.875 22.24 230.872 23.328C229.891 24.416 228.867 24.96 227.8 24.96C226.925 24.96 226.285 24.576 225.88 23.808C225.496 23.0187 225.304 21.9733 225.304 20.672C225.304 19.9893 225.347 19.2427 225.432 18.432C225.539 17.6213 225.677 16.7787 225.848 15.904C224.909 15.7547 224.045 15.6373 223.256 15.552C222.488 15.4453 221.773 15.3493 221.112 15.264C220.109 17.12 219.128 19.0293 218.168 20.992C217.229 22.9547 216.355 24.8853 215.544 26.784ZM226.072 14.784C226.392 13.376 226.765 11.9573 227.192 10.528C227.619 9.07733 228.067 7.70133 228.536 6.4C229.027 5.09867 229.485 3.95733 229.912 2.976C229.251 3.38133 228.483 4.10667 227.608 5.152C226.755 6.176 225.848 7.43467 224.888 8.928C223.928 10.4 222.947 12.0213 221.944 13.792C222.669 13.9413 223.384 14.112 224.088 14.304C224.813 14.4747 225.475 14.6347 226.072 14.784ZM257.098 27.872C256.629 27.872 256.074 27.5733 255.434 26.976C254.815 26.4 254.165 25.632 253.482 24.672C252.799 23.7333 252.117 22.6987 251.434 21.568C250.773 20.4373 250.154 19.3067 249.578 18.176C249.023 17.0453 248.554 16.032 248.17 15.136C247.573 17.2267 246.997 19.2853 246.442 21.312C245.887 23.3173 245.365 25.1413 244.874 26.784C244.341 26.784 243.85 26.6347 243.402 26.336C242.975 26.0373 242.762 25.6533 242.762 25.184C242.762 24.9493 242.815 24.6613 242.922 24.32C243.029 24 243.125 23.7013 243.21 23.424C243.743 21.7387 244.266 20.1493 244.778 18.656C245.29 17.1627 245.791 15.7227 246.282 14.336C246.773 12.9493 247.274 11.5733 247.786 10.208C248.319 8.84267 248.874 7.46667 249.45 6.08C250.026 4.69333 250.645 3.25333 251.306 1.76C250.41 1.90933 249.631 2.13333 248.97 2.432C248.309 2.70933 247.775 2.976 247.37 3.232C246.965 3.46667 246.687 3.584 246.538 3.584C246.453 3.584 246.325 3.54133 246.154 3.456C246.005 3.34933 245.866 3.232 245.738 3.104C245.61 2.95467 245.546 2.82667 245.546 2.72C246.101 2.48533 246.751 2.22933 247.498 1.952C248.245 1.67467 249.066 1.44 249.962 1.248C250.858 1.056 251.786 0.959999 252.746 0.959999C253.663 0.959999 254.591 1.07733 255.53 1.312C256.49 1.52533 257.365 1.87733 258.154 2.368C258.965 2.83733 259.615 3.456 260.106 4.224C260.597 4.97067 260.842 5.87733 260.842 6.944C260.842 7.98933 260.597 8.896 260.106 9.664C259.637 10.4107 259.007 11.04 258.218 11.552C257.45 12.064 256.607 12.48 255.69 12.8C254.773 13.0987 253.866 13.3333 252.97 13.504C252.074 13.6533 251.263 13.76 250.538 13.824C249.813 13.8667 249.269 13.888 248.906 13.888C249.567 15.0187 250.197 16.1173 250.794 17.184C251.391 18.2507 252.042 19.3173 252.746 20.384C253.45 21.4293 254.282 22.4853 255.242 23.552C256.202 24.6187 257.365 25.7067 258.73 26.816C258.602 27.0933 258.367 27.3387 258.026 27.552C257.706 27.7653 257.397 27.872 257.098 27.872ZM248.682 13.376C249.834 13.312 250.997 13.1307 252.17 12.832C253.365 12.512 254.453 12.0747 255.434 11.52C256.415 10.944 257.205 10.2293 257.802 9.376C258.399 8.50133 258.698 7.46667 258.698 6.272C258.698 5.09867 258.421 4.18133 257.866 3.52C257.311 2.83733 256.597 2.35733 255.722 2.08C254.847 1.78133 253.93 1.632 252.97 1.632C252.245 3.104 251.519 4.87466 250.794 6.944C250.069 8.992 249.365 11.136 248.682 13.376ZM263.206 25.408C261.905 25.408 260.923 25.0453 260.262 24.32C259.622 23.616 259.302 22.7413 259.302 21.696C259.302 20.736 259.537 19.7227 260.006 18.656C260.497 17.5893 261.137 16.5867 261.926 15.648C262.737 14.7093 263.622 13.952 264.582 13.376C265.542 12.7787 266.491 12.48 267.43 12.48C267.921 12.48 268.369 12.608 268.774 12.864C269.201 13.12 269.414 13.6427 269.414 14.432C269.414 15.2427 269.169 16.0107 268.678 16.736C268.209 17.44 267.579 18.0693 266.79 18.624C266.022 19.1787 265.169 19.6373 264.23 20C263.313 20.3413 262.395 20.5547 261.478 20.64C261.435 20.8533 261.403 21.056 261.382 21.248C261.361 21.44 261.35 21.6213 261.35 21.792C261.35 22.112 261.382 22.432 261.446 22.752C261.531 23.072 261.67 23.3707 261.862 23.648C262.054 23.904 262.31 24.1067 262.63 24.256C262.971 24.4053 263.387 24.48 263.878 24.48C264.795 24.48 265.702 24.224 266.598 23.712C267.494 23.1787 268.326 22.4853 269.094 21.632C269.862 20.7787 270.513 19.84 271.046 18.816L271.43 19.104C270.854 20.384 270.118 21.4933 269.222 22.432C268.347 23.3707 267.387 24.096 266.342 24.608C265.318 25.1413 264.273 25.408 263.206 25.408ZM261.638 20.032C262.214 19.84 262.865 19.5627 263.59 19.2C264.315 18.816 265.009 18.368 265.67 17.856C266.353 17.344 266.907 16.7787 267.334 16.16C267.782 15.5413 268.006 14.8907 268.006 14.208C268.006 13.9733 267.963 13.792 267.878 13.664C267.793 13.536 267.611 13.472 267.334 13.472C266.822 13.472 266.278 13.6747 265.702 14.08C265.126 14.464 264.571 14.976 264.038 15.616C263.505 16.256 263.025 16.96 262.598 17.728C262.171 18.496 261.851 19.264 261.638 20.032ZM271.942 25.504C271.281 25.504 270.726 25.28 270.278 24.832C269.809 24.4053 269.574 23.744 269.574 22.848C269.574 22.08 269.745 21.2587 270.086 20.384C270.428 19.488 270.897 18.6133 271.494 17.76C272.092 16.8853 272.764 16.096 273.51 15.392C274.278 14.6667 275.078 14.0907 275.91 13.664C276.764 13.2373 277.606 13.024 278.438 13.024C279.27 13.024 279.964 13.248 280.518 13.696C281.073 14.1227 281.35 14.6987 281.35 15.424C281.35 15.9573 281.201 16.32 280.902 16.512C280.625 16.704 280.252 16.8 279.782 16.8C279.825 16.6293 279.857 16.448 279.878 16.256C279.921 16.0427 279.942 15.8507 279.942 15.68C279.942 15.1893 279.825 14.7733 279.59 14.432C279.356 14.0693 278.95 13.888 278.374 13.888C277.777 13.888 277.169 14.1013 276.55 14.528C275.932 14.9333 275.334 15.488 274.758 16.192C274.182 16.8747 273.67 17.6213 273.222 18.432C272.774 19.2427 272.422 20.0427 272.166 20.832C271.91 21.6213 271.782 22.3253 271.782 22.944C271.782 23.776 272.07 24.192 272.646 24.192C273.137 24.192 273.67 23.968 274.246 23.52C274.822 23.0507 275.409 22.464 276.006 21.76C276.625 21.0347 277.212 20.288 277.766 19.52C278.321 18.752 278.812 18.048 279.238 17.408C279.324 17.28 279.377 17.216 279.398 17.216C279.526 17.2373 279.686 17.28 279.878 17.344C280.092 17.408 280.273 17.4933 280.422 17.6C280.572 17.7067 280.646 17.8453 280.646 18.016C280.646 18.208 280.55 18.4747 280.358 18.816C280.166 19.136 279.953 19.5093 279.718 19.936C279.484 20.3627 279.27 20.8 279.078 21.248C278.886 21.6747 278.79 22.08 278.79 22.464C278.79 22.784 278.876 23.104 279.046 23.424C279.217 23.7227 279.494 23.872 279.878 23.872C280.454 23.872 281.212 23.456 282.15 22.624C283.089 21.7707 284.038 20.5013 284.998 18.816L285.318 19.136C284.87 20.288 284.294 21.3013 283.59 22.176C282.886 23.0507 282.129 23.7333 281.318 24.224C280.529 24.7147 279.75 24.96 278.982 24.96C278.193 24.96 277.606 24.7253 277.222 24.256C276.86 23.7867 276.678 23.2747 276.678 22.72C276.678 22.592 276.689 22.4533 276.71 22.304C276.732 22.1333 276.753 21.9627 276.774 21.792C275.857 23.0293 275.014 23.9573 274.246 24.576C273.5 25.1947 272.732 25.504 271.942 25.504ZM287 24.96C286.082 24.96 285.421 24.64 285.016 24C284.632 23.3813 284.44 22.6027 284.44 21.664C284.44 20.64 284.632 19.424 285.016 18.016C285.4 16.608 285.901 15.1253 286.52 13.568C287.16 12.0107 287.853 10.496 288.6 9.024C289.346 7.53067 290.093 6.176 290.84 4.96C291.586 3.744 292.269 2.77333 292.888 2.048C293.528 1.32267 294.029 0.959999 294.392 0.959999C294.626 0.959999 294.818 1.09867 294.968 1.376C295.117 1.632 295.234 1.952 295.32 2.336C295.405 2.69867 295.448 3.02933 295.448 3.328C295.448 3.904 295.298 4.66133 295 5.6C294.722 6.51733 294.317 7.552 293.784 8.704C293.272 9.83467 292.653 10.9867 291.928 12.16C291.224 13.312 290.445 14.4213 289.592 15.488C288.76 16.5547 287.874 17.472 286.936 18.24C286.808 18.816 286.701 19.3813 286.616 19.936C286.552 20.4693 286.52 20.9813 286.52 21.472C286.52 22.304 286.637 22.9227 286.872 23.328C287.106 23.7333 287.458 23.936 287.928 23.936C288.504 23.936 289.069 23.68 289.624 23.168C290.2 22.656 290.733 22.016 291.224 21.248C291.736 20.4587 292.173 19.648 292.536 18.816L293.016 19.072C292.162 20.8853 291.234 22.3253 290.232 23.392C289.229 24.4373 288.152 24.96 287 24.96ZM287.224 17.152C287.97 16.4053 288.696 15.552 289.4 14.592C290.104 13.6107 290.754 12.5973 291.352 11.552C291.97 10.5067 292.514 9.49333 292.984 8.512C293.453 7.53067 293.816 6.656 294.072 5.888C294.328 5.09867 294.456 4.49067 294.456 4.064C294.456 3.85067 294.424 3.712 294.36 3.648C294.317 3.584 294.274 3.552 294.232 3.552C294.061 3.552 293.762 3.82933 293.336 4.384C292.93 4.91733 292.45 5.64267 291.896 6.56C291.341 7.47733 290.776 8.52267 290.2 9.696C289.624 10.8693 289.069 12.096 288.536 13.376C288.024 14.656 287.586 15.9147 287.224 17.152ZM294.21 24.832C293.378 24.832 292.76 24.5653 292.354 24.032C291.949 23.52 291.746 22.8907 291.746 22.144C291.746 21.6533 291.832 21.0347 292.002 20.288C292.194 19.5413 292.44 18.7627 292.738 17.952C293.037 17.12 293.378 16.3413 293.762 15.616C294.168 14.8907 294.594 14.304 295.042 13.856C295.49 13.3867 295.928 13.152 296.354 13.152C296.546 13.152 296.706 13.216 296.834 13.344C296.984 13.4507 297.058 13.6213 297.058 13.856C297.058 14.112 296.888 14.528 296.546 15.104C296.226 15.68 295.842 16.3413 295.394 17.088C294.946 17.8347 294.552 18.624 294.21 19.456C293.89 20.2667 293.73 21.0453 293.73 21.792C293.73 22.56 293.858 23.072 294.114 23.328C294.37 23.584 294.765 23.712 295.298 23.712C296.024 23.712 296.792 23.3493 297.602 22.624C298.434 21.8987 299.309 20.6293 300.226 18.816L300.514 19.136C299.896 20.9707 299 22.3787 297.826 23.36C296.674 24.3413 295.469 24.832 294.21 24.832ZM298.05 10.176C297.709 10.176 297.4 10.0907 297.122 9.92C296.866 9.74933 296.738 9.48267 296.738 9.12C296.738 8.672 296.994 8.288 297.506 7.968C298.04 7.62667 298.562 7.456 299.074 7.456C299.394 7.456 299.65 7.53067 299.842 7.68C300.034 7.82933 300.13 8.08533 300.13 8.448C300.13 8.85333 299.906 9.248 299.458 9.632C299.032 9.99467 298.562 10.176 298.05 10.176ZM302.345 25.472C301.428 25.472 300.724 25.2053 300.233 24.672C299.742 24.1387 299.497 23.3493 299.497 22.304C299.497 21.3653 299.668 20.2133 300.009 18.848C300.372 17.4613 300.82 16.0427 301.353 14.592C301.14 14.5493 300.937 14.5173 300.745 14.496C300.553 14.4533 300.372 14.4 300.201 14.336V13.76C300.372 13.7813 300.574 13.8027 300.809 13.824C301.044 13.8453 301.31 13.8667 301.609 13.888C302.057 12.736 302.537 11.6267 303.049 10.56C303.561 9.472 304.062 8.512 304.553 7.68C305.065 6.82667 305.545 6.15467 305.993 5.664C306.462 5.152 306.857 4.896 307.177 4.896C307.348 4.896 307.497 4.96 307.625 5.088C307.774 5.19467 307.849 5.36533 307.849 5.6C307.849 5.96267 307.625 6.56 307.177 7.392C306.729 8.20267 306.174 9.17333 305.513 10.304C304.852 11.4347 304.212 12.6613 303.593 13.984C303.785 13.984 303.977 13.984 304.169 13.984C304.382 13.984 304.585 13.984 304.777 13.984C305.481 13.984 306.217 13.9733 306.985 13.952C307.774 13.9307 308.564 13.8773 309.353 13.792V14.368C308.18 14.496 307.124 14.592 306.185 14.656C305.268 14.72 304.446 14.752 303.721 14.752C303.636 14.752 303.55 14.752 303.465 14.752C303.401 14.752 303.326 14.752 303.241 14.752C302.75 15.8827 302.334 17.0453 301.993 18.24C301.652 19.4347 301.481 20.5973 301.481 21.728C301.481 22.6453 301.62 23.3067 301.897 23.712C302.174 24.096 302.633 24.288 303.273 24.288C304.382 24.288 305.47 23.7973 306.537 22.816C307.604 21.8347 308.542 20.5013 309.353 18.816L309.769 19.136C309.257 20.3307 308.606 21.408 307.817 22.368C307.049 23.328 306.196 24.0853 305.257 24.64C304.318 25.1947 303.348 25.472 302.345 25.472ZM310.126 32.96C309.593 32.96 309.123 32.8107 308.718 32.512C308.313 32.2347 308.11 31.8187 308.11 31.264C308.11 30.5813 308.281 29.9733 308.622 29.44C308.963 28.9067 309.422 28.416 309.998 27.968C310.574 27.52 311.235 27.0933 311.982 26.688C312.729 26.2827 313.507 25.8773 314.318 25.472C314.617 24.6827 314.915 23.808 315.214 22.848C315.534 21.8667 315.833 20.7893 316.11 19.616C315.427 20.7253 314.691 21.6853 313.902 22.496C313.134 23.2853 312.313 23.68 311.438 23.68C311.033 23.68 310.627 23.5947 310.222 23.424C309.838 23.232 309.518 22.944 309.262 22.56C309.006 22.176 308.878 21.6853 308.878 21.088C308.878 20.4907 308.974 19.7973 309.166 19.008C309.379 18.2187 309.635 17.4507 309.934 16.704C310.233 15.9573 310.542 15.3387 310.862 14.848C311.182 14.3573 311.459 14.112 311.694 14.112C311.779 14.112 311.929 14.144 312.142 14.208C312.377 14.272 312.59 14.368 312.782 14.496C312.995 14.6027 313.102 14.72 313.102 14.848C312.91 15.1253 312.697 15.52 312.462 16.032C312.227 16.544 311.993 17.12 311.758 17.76C311.545 18.3787 311.363 18.9867 311.214 19.584C311.065 20.1813 310.99 20.6933 310.99 21.12C310.99 21.504 311.075 21.8133 311.246 22.048C311.417 22.2827 311.715 22.4 312.142 22.4C312.547 22.4 312.995 22.208 313.486 21.824C313.998 21.4187 314.499 20.9067 314.99 20.288C315.502 19.6693 315.971 19.008 316.398 18.304C316.462 18.0693 316.515 17.8347 316.558 17.6C316.622 17.344 316.675 17.088 316.718 16.832C316.782 16.5333 316.931 16.192 317.166 15.808C317.422 15.4027 317.817 15.2 318.35 15.2C318.457 15.2 318.563 15.2107 318.67 15.232C318.777 15.232 318.894 15.2533 319.022 15.296C319.022 15.6373 318.915 16.2773 318.702 17.216C318.51 18.1333 318.222 19.2107 317.838 20.448C317.475 21.6853 317.038 22.9547 316.526 24.256C317.529 23.872 318.51 23.2427 319.47 22.368C320.43 21.472 321.209 20.288 321.806 18.816L322.222 19.136C321.902 20.16 321.411 21.056 320.75 21.824C320.11 22.5707 319.385 23.2213 318.574 23.776C317.763 24.3093 316.963 24.7573 316.174 25.12C315.619 26.4853 315.011 27.7653 314.35 28.96C313.71 30.1547 313.027 31.1147 312.302 31.84C311.598 32.5867 310.873 32.96 310.126 32.96ZM309.966 31.936C310.286 31.936 310.819 31.5093 311.566 30.656C312.334 29.824 313.145 28.352 313.998 26.24C313.123 26.7093 312.313 27.168 311.566 27.616C310.819 28.0853 310.222 28.5867 309.774 29.12C309.326 29.6533 309.102 30.272 309.102 30.976C309.102 31.1467 309.166 31.3493 309.294 31.584C309.422 31.8187 309.646 31.936 309.966 31.936ZM324.164 14.688C324.526 13.792 324.932 12.7573 325.38 11.584C325.828 10.3893 326.308 9.17333 326.82 7.936C327.332 6.69867 327.844 5.55733 328.356 4.512C328.889 3.44533 329.401 2.592 329.892 1.952C330.382 1.29067 330.83 0.959999 331.236 0.959999C331.406 0.959999 331.556 1.03467 331.684 1.184C331.812 1.312 331.876 1.48267 331.876 1.696C331.876 1.99467 331.716 2.54933 331.396 3.36C331.097 4.14933 330.681 5.12 330.148 6.272C329.636 7.40267 329.049 8.61867 328.388 9.92C327.748 11.2213 327.076 12.544 326.372 13.888C325.668 15.2107 324.974 16.4693 324.292 17.664C323.63 18.8373 323.022 19.8613 322.468 20.736C322.446 20.7147 322.425 20.704 322.404 20.704C322.404 20.6827 322.393 20.6613 322.372 20.64C322.585 19.68 322.798 18.8053 323.012 18.016C323.246 17.2267 323.47 16.5547 323.684 16C323.897 15.424 324.057 14.9867 324.164 14.688ZM321.54 24.32C321.262 24.32 321.027 24.2453 320.835 24.096C320.622 23.968 320.515 23.7547 320.515 23.456C320.515 23.0933 320.729 22.784 321.155 22.528C321.561 22.272 321.966 22.144 322.372 22.144C322.628 22.144 322.83 22.1973 322.98 22.304C323.129 22.4107 323.204 22.6133 323.204 22.912C323.204 23.232 323.033 23.552 322.692 23.872C322.35 24.1707 321.966 24.32 321.54 24.32ZM332.476 14.688C332.839 13.792 333.244 12.7573 333.692 11.584C334.14 10.3893 334.62 9.17333 335.132 7.936C335.644 6.69867 336.156 5.55733 336.668 4.512C337.201 3.44533 337.713 2.592 338.204 1.952C338.695 1.29067 339.143 0.959999 339.548 0.959999C339.719 0.959999 339.868 1.03467 339.996 1.184C340.124 1.312 340.188 1.48267 340.188 1.696C340.188 1.99467 340.028 2.54933 339.708 3.36C339.409 4.14933 338.993 5.12 338.46 6.272C337.948 7.40267 337.361 8.61867 336.7 9.92C336.06 11.2213 335.388 12.544 334.684 13.888C333.98 15.2107 333.287 16.4693 332.604 17.664C331.943 18.8373 331.335 19.8613 330.78 20.736C330.759 20.7147 330.737 20.704 330.716 20.704C330.716 20.6827 330.705 20.6613 330.684 20.64C330.897 19.68 331.111 18.8053 331.324 18.016C331.559 17.2267 331.783 16.5547 331.996 16C332.209 15.424 332.369 14.9867 332.476 14.688ZM329.852 24.32C329.575 24.32 329.34 24.2453 329.148 24.096C328.935 23.968 328.828 23.7547 328.828 23.456C328.828 23.0933 329.041 22.784 329.468 22.528C329.873 22.272 330.279 22.144 330.684 22.144C330.94 22.144 331.143 22.1973 331.292 22.304C331.441 22.4107 331.516 22.6133 331.516 22.912C331.516 23.232 331.345 23.552 331.004 23.872C330.663 24.1707 330.279 24.32 329.852 24.32Z" fill="#045F69"/>
    </svg>
    